<?xml version="1.0" encoding="UTF-8"?>
<svg width="100px" height="100px" viewBox="0 0 100 100" version="1.1" xmlns="http://www.w3.org/2000/svg" xmlns:xlink="http://www.w3.org/1999/xlink">
    <!-- Generator: Sketch 50.2 (55047) - http://www.bohemiancoding.com/sketch -->
    <title>activity</title>
    <desc>Created with Sketch.</desc>
    <defs></defs>
    <g id="activity" stroke="none" stroke-width="1" fill="none" fill-rule="evenodd">
        <g id="line-graph" transform="translate(27.000000, 30.000000)" fill="#FFFFFF" fill-rule="nonzero">
            <path d="M1.58748635,23.6728919 L4.72234913,24.4785822 L7.08212111,20.6384431 L2.59717436,19.4895001 C1.47478769,19.2010726 0.340901153,19.9042638 0.0626044579,21.0627415 C-0.215692237,22.2140681 0.465099679,23.3820806 1.58748635,23.6728919 Z M42.5063005,24.2950373 L32.2415224,33.8679726 L20.1735657,24.1877709 C19.9435684,24.0066098 19.6790715,23.8707389 19.3961749,23.8016117 L17.7907939,23.386848 L15.428722,27.2269871 L17.958692,27.877737 L31.0616364,38.3850822 C31.4434318,38.687812 31.8942265,38.8356013 32.3473211,38.8356013 C32.8510151,38.8356013 33.3547091,38.6496728 33.7480045,38.2825831 L45.3122671,27.4915777 C46.167857,26.6954222 46.2345562,25.3319464 45.4594654,24.4475941 C44.6843746,23.5656254 43.3641903,23.4941145 42.5063005,24.2950373 Z M19.973468,13.7781573 L31.2134346,21.2367515 C32.1633233,21.8660481 33.4237083,21.6038412 34.0654007,20.6503616 L45.6273634,3.38761334 C46.2851556,2.40552935 46.0482584,1.05873941 45.0960697,0.384152589 C44.143881,-0.295201629 42.8443965,-0.049680631 42.1866043,0.932403361 L31.7723279,16.4765046 L20.4656622,8.97500382 C19.9964678,8.66273925 19.4283745,8.56024019 18.883281,8.68180884 C18.3404874,8.80814489 17.866693,9.15139754 17.5699966,9.63528844 L0.327101317,37.6842747 C-0.293891309,38.6901957 -0.00409475008,40.0274508 0.97109367,40.6638984 C1.31608957,40.8927335 1.70478496,41 2.0888804,41 C2.78117218,41 3.45966412,40.6448288 3.85525942,39.9988464 L19.973468,13.7781573 Z" id="Shape"></path>
        </g>
    </g>
</svg>