<?xml version="1.0" encoding="UTF-8"?>
<svg width="100px" height="100px" viewBox="0 0 100 100" version="1.1" xmlns="http://www.w3.org/2000/svg" xmlns:xlink="http://www.w3.org/1999/xlink">
    <!-- Generator: Sketch 50.2 (55047) - http://www.bohemiancoding.com/sketch -->
    <title>chart</title>
    <desc>Created with Sketch.</desc>
    <defs></defs>
    <g id="chart" stroke="none" stroke-width="1" fill="none" fill-rule="evenodd">
        <g id="chart-bars" transform="translate(28.000000, 28.000000)" fill="#FFFFFF" fill-rule="nonzero">
            <path d="M40.5263158,44 L3.47368421,44 C1.55852632,44 0,42.4414737 0,40.5263158 L0,3.47368421 C0,1.55852632 1.55852632,0 3.47368421,0 L40.5263158,0 C42.4414737,0 44,1.55852632 44,3.47368421 L44,40.5263158 C44,42.4414737 42.4414737,44 40.5263158,44 Z M3.47368421,2.31578947 C2.83452632,2.31578947 2.31578947,2.83452632 2.31578947,3.47368421 L2.31578947,40.5263158 C2.31578947,41.1654737 2.83452632,41.6842105 3.47368421,41.6842105 L40.5263158,41.6842105 C41.1654737,41.6842105 41.6842105,41.1654737 41.6842105,40.5263158 L41.6842105,3.47368421 C41.6842105,2.83452632 41.1654737,2.31578947 40.5263158,2.31578947 L3.47368421,2.31578947 Z" id="Shape"></path>
            <path d="M14.1025641,37.2307692 L9.58974359,37.2307692 C8.96697436,37.2307692 8.46153846,36.7000615 8.46153846,36.0461538 L8.46153846,14.7230769 C8.46153846,14.0691692 8.96697436,13.5384615 9.58974359,13.5384615 L14.1025641,13.5384615 C14.7253333,13.5384615 15.2307692,14.0691692 15.2307692,14.7230769 L15.2307692,36.0461538 C15.2307692,36.7000615 14.7253333,37.2307692 14.1025641,37.2307692 Z M10.7179487,34.8615385 L12.974359,34.8615385 L12.974359,15.9076923 L10.7179487,15.9076923 L10.7179487,34.8615385 Z" id="Shape"></path>
            <path d="M24.2564103,37.2307692 L19.7435897,37.2307692 C19.1208205,37.2307692 18.6153846,36.7058935 18.6153846,36.0591716 L18.6153846,7.9408284 C18.6153846,7.29410651 19.1208205,6.76923077 19.7435897,6.76923077 L24.2564103,6.76923077 C24.8791795,6.76923077 25.3846154,7.29410651 25.3846154,7.9408284 L25.3846154,36.0591716 C25.3846154,36.7058935 24.8791795,37.2307692 24.2564103,37.2307692 Z M20.8717949,34.887574 L23.1282051,34.887574 L23.1282051,9.11242604 L20.8717949,9.11242604 L20.8717949,34.887574 Z" id="Shape"></path>
            <path d="M34.4102564,37.2307692 L29.8974359,37.2307692 C29.2746667,37.2307692 28.7692308,36.7253333 28.7692308,36.1025641 L28.7692308,24.8205128 C28.7692308,24.1977436 29.2746667,23.6923077 29.8974359,23.6923077 L34.4102564,23.6923077 C35.0330256,23.6923077 35.5384615,24.1977436 35.5384615,24.8205128 L35.5384615,36.1025641 C35.5384615,36.7253333 35.0330256,37.2307692 34.4102564,37.2307692 Z M31.025641,34.974359 L33.2820513,34.974359 L33.2820513,25.9487179 L31.025641,25.9487179 L31.025641,34.974359 Z" id="Shape"></path>
        </g>
    </g>
</svg>