<?xml version="1.0" encoding="UTF-8"?>
<svg width="16px" height="16px" viewBox="0 0 16 16" version="1.1" xmlns="http://www.w3.org/2000/svg" xmlns:xlink="http://www.w3.org/1999/xlink">
    <!-- Generator: Sketch 50.2 (55047) - http://www.bohemiancoding.com/sketch -->
    <title>Group 3 Copy</title>
    <desc>Created with Sketch.</desc>
    <defs></defs>
    <g id="Search" stroke="none" stroke-width="1" fill="none" fill-rule="evenodd">
        <g id="last-arrow" transform="translate(-17.000000, -17.000000)" fill="#4A4A4A" fill-rule="nonzero">
            <g id="Group-3-Copy" transform="translate(17.000000, 17.000000)">
                <g id="up-scroll-arrow" transform="translate(11.500000, 8.000000) rotate(-270.000000) translate(-11.500000, -8.000000) translate(4.000000, 4.000000)">
                    <path d="M13.9693468,7.82548585 C14.2053283,8.05817138 14.5874684,8.05817138 14.8232755,7.82548585 C15.0587337,7.59280031 15.0590826,7.21577323 14.8232755,6.98256598 L7.92626668,0.174514152 C7.69045958,-0.0581713839 7.30866835,-0.0581713839 7.07303567,0.174514152 L0.176724537,6.98256598 C-0.0587337333,7.21577323 -0.0590825604,7.5924525 0.176724537,7.82548585 C0.412531635,8.05817138 0.794671688,8.05817138 1.03047879,7.82548585 L7.49965117,1.61653841 L13.9693468,7.82548585 Z" id="Shape"></path>
                </g>
                <g id="up-scroll-arrow" transform="translate(4.500000, 8.000000) rotate(-270.000000) translate(-4.500000, -8.000000) translate(-3.000000, 4.000000)">
                    <path d="M13.9693468,7.82548585 C14.2053283,8.05817138 14.5874684,8.05817138 14.8232755,7.82548585 C15.0587337,7.59280031 15.0590826,7.21577323 14.8232755,6.98256598 L7.92626668,0.174514152 C7.69045958,-0.0581713839 7.30866835,-0.0581713839 7.07303567,0.174514152 L0.176724537,6.98256598 C-0.0587337333,7.21577323 -0.0590825604,7.5924525 0.176724537,7.82548585 C0.412531635,8.05817138 0.794671688,8.05817138 1.03047879,7.82548585 L7.49965117,1.61653841 L13.9693468,7.82548585 Z" id="Shape"></path>
                </g>
            </g>
        </g>
    </g>
</svg>