<?xml version="1.0" encoding="UTF-8"?>
<svg width="100px" height="100px" viewBox="0 0 100 100" version="1.1" xmlns="http://www.w3.org/2000/svg" xmlns:xlink="http://www.w3.org/1999/xlink">
    <!-- Generator: Sketch 50.2 (55047) - http://www.bohemiancoding.com/sketch -->
    <title>person</title>
    <desc>Created with Sketch.</desc>
    <defs></defs>
    <g id="person" stroke="none" stroke-width="1" fill="none" fill-rule="evenodd">
        <g id="user" transform="translate(26.000000, 25.000000)" fill="#FFFFFF" fill-rule="nonzero">
            <path d="M24,28.9 C16.4371948,28.9 10.2857143,22.4185182 10.2857143,14.45 C10.2857143,6.48148182 16.4371948,0 24,0 C31.5628052,0 37.7142857,6.48148182 37.7142857,14.45 C37.7142857,22.4185182 31.5628052,28.9 24,28.9 Z M24,2.62727273 C17.8136104,2.62727273 12.7792208,7.93173636 12.7792208,14.45 C12.7792208,20.9682636 17.8136104,26.2727273 24,26.2727273 C30.1863896,26.2727273 35.2207792,20.9682636 35.2207792,14.45 C35.2207792,7.93173636 30.1863896,2.62727273 24,2.62727273 Z" id="Shape"></path>
            <path d="M44.2105263,51 L3.78947368,51 C1.70021053,51 0,49.28385 0,47.175 C0,47.0016 0.0353684211,42.87825 3.09473684,38.76 C4.87578947,36.363 7.31368421,34.45815 10.3427368,33.10155 C14.0412632,31.4415 18.6366316,30.6 24,30.6 C29.3633684,30.6 33.9587368,31.4415 37.6572632,33.10155 C40.6863158,34.4607 43.1242105,36.363 44.9052632,38.76 C47.9646316,42.87825 48,47.0016 48,47.175 C48,49.28385 46.2997895,51 44.2105263,51 Z M24,33.15 C15.2092437,33.15 8.72268908,35.58015 5.24117647,40.1778 C2.63193277,43.62285 2.57394958,47.1444 2.57142857,47.1801 C2.57142857,47.8788 3.13613445,48.45 3.83193277,48.45 L44.1680672,48.45 C44.8638655,48.45 45.4285714,47.8788 45.4285714,47.175 C45.4285714,47.1444 45.3705882,43.62285 42.7588235,40.1778 C39.2747899,35.58015 32.7882353,33.15 24,33.15 Z" id="Shape"></path>
        </g>
    </g>
</svg>