<?xml version="1.0" encoding="UTF-8"?>
<svg width="100px" height="100px" viewBox="0 0 100 100" version="1.1" xmlns="http://www.w3.org/2000/svg" xmlns:xlink="http://www.w3.org/1999/xlink">
    <!-- Generator: Sketch 50.2 (55047) - http://www.bohemiancoding.com/sketch -->
    <title>pools</title>
    <desc>Created with Sketch.</desc>
    <defs></defs>
    <g id="pools" stroke="none" stroke-width="1" fill="none" fill-rule="evenodd">
        <g id="0813-list" transform="translate(29.000000, 37.000000)" fill="#FFFFFF" fill-rule="nonzero">
            <path d="M40.95,24.9230769 L9.45,24.9230769 C8.8704,24.9230769 8.4,24.4578462 8.4,23.8846154 C8.4,23.3113846 8.8704,22.8461538 9.45,22.8461538 L40.95,22.8461538 C41.5296,22.8461538 42,23.3113846 42,23.8846154 C42,24.4578462 41.5296,24.9230769 40.95,24.9230769 Z" id="Shape"></path>
            <path d="M40.95,14.5384615 L9.45,14.5384615 C8.8704,14.5384615 8.4,14.0732308 8.4,13.5 C8.4,12.9267692 8.8704,12.4615385 9.45,12.4615385 L40.95,12.4615385 C41.5296,12.4615385 42,12.9267692 42,13.5 C42,14.0732308 41.5296,14.5384615 40.95,14.5384615 Z" id="Shape"></path>
            <path d="M40.95,4.15384615 L9.45,4.15384615 C8.8704,4.15384615 8.4,3.68861538 8.4,3.11538462 C8.4,2.54215385 8.8704,2.07692308 9.45,2.07692308 L40.95,2.07692308 C41.5296,2.07692308 42,2.54215385 42,3.11538462 C42,3.68861538 41.5296,4.15384615 40.95,4.15384615 Z" id="Shape"></path>
            <path d="M3.15,6.23076923 C1.4133,6.23076923 0,4.833 0,3.11538462 C0,1.39776923 1.4133,0 3.15,0 C4.8867,0 6.3,1.39776923 6.3,3.11538462 C6.3,4.833 4.8867,6.23076923 3.15,6.23076923 Z M3.15,2.07692308 C2.5704,2.07692308 2.1,2.54215385 2.1,3.11538462 C2.1,3.68861538 2.5704,4.15384615 3.15,4.15384615 C3.7296,4.15384615 4.2,3.68861538 4.2,3.11538462 C4.2,2.54215385 3.7296,2.07692308 3.15,2.07692308 Z" id="Shape"></path>
            <path d="M3.15,16.6153846 C1.4133,16.6153846 0,15.2176154 0,13.5 C0,11.7823846 1.4133,10.3846154 3.15,10.3846154 C4.8867,10.3846154 6.3,11.7823846 6.3,13.5 C6.3,15.2176154 4.8867,16.6153846 3.15,16.6153846 Z M3.15,12.4615385 C2.5704,12.4615385 2.1,12.9267692 2.1,13.5 C2.1,14.0732308 2.5704,14.5384615 3.15,14.5384615 C3.7296,14.5384615 4.2,14.0732308 4.2,13.5 C4.2,12.9267692 3.7296,12.4615385 3.15,12.4615385 Z" id="Shape"></path>
            <path d="M3.15,27 C1.4133,27 0,25.6022308 0,23.8846154 C0,22.167 1.4133,20.7692308 3.15,20.7692308 C4.8867,20.7692308 6.3,22.167 6.3,23.8846154 C6.3,25.6022308 4.8867,27 3.15,27 Z M3.15,22.8461538 C2.5704,22.8461538 2.1,23.3113846 2.1,23.8846154 C2.1,24.4578462 2.5704,24.9230769 3.15,24.9230769 C3.7296,24.9230769 4.2,24.4578462 4.2,23.8846154 C4.2,23.3113846 3.7296,22.8461538 3.15,22.8461538 Z" id="Shape"></path>
        </g>
    </g>
</svg>