<?xml version="1.0" encoding="UTF-8"?>
<svg width="100px" height="100px" viewBox="0 0 100 100" version="1.1" xmlns="http://www.w3.org/2000/svg" xmlns:xlink="http://www.w3.org/1999/xlink">
    <!-- Generator: Sketch 50.2 (55047) - http://www.bohemiancoding.com/sketch -->
    <title>ruling</title>
    <desc>Created with Sketch.</desc>
    <defs></defs>
    <g id="ruling" stroke="none" stroke-width="1" fill="none" fill-rule="evenodd">
        <g id="0570-balance" transform="translate(26.000000, 26.000000)" fill="#FFFFFF" fill-rule="nonzero">
            <path d="M48.9677356,32.5413699 L41.2300867,0.996935561 C41.0830713,0.400220011 40.5569112,0.000657175716 39.9791667,0.000657175716 C39.9688499,0.000657175716 39.9611122,0.000657175716 39.9507954,0.000657175716 L9.05694228,0.000657175716 C8.98214501,-0.00197152715 8.90734773,0.00328587858 8.82997124,0.0164293929 C8.74485711,0.0295729072 8.65974297,0.053231233 8.57978726,0.0821469645 C8.35797466,0.166265456 8.17227108,0.305586708 8.03041418,0.4817098 C7.95045848,0.578971806 7.88597807,0.689377326 7.83697296,0.810297658 C7.80860158,0.878643932 7.78796785,0.94961891 7.76991334,1.02059389 L0.0374228067,32.5387412 C-0.0141615197,32.7516662 -0.0115823034,32.9698485 0.0400020231,33.1748873 L0.0374228067,33.1748873 C0.0786902679,33.3404956 0.473310365,34.8414849 1.76807696,36.3503604 C2.97257098,37.7540877 5.21133075,39.4285714 9.02599168,39.4285714 C12.8406526,39.4285714 15.0768332,37.7540877 16.2839064,36.3503604 C17.578673,34.8414849 17.9758723,33.3404956 18.0145606,33.1748873 L18.0119813,33.1748873 C18.0635657,32.9672198 18.0661449,32.7490375 18.0145606,32.5387412 L10.6766901,2.62673134 L38.3233099,2.62673134 L30.9854394,32.5387412 C30.9338551,32.7516662 30.9364343,32.9698485 30.9880187,33.1748873 L30.9854394,33.1748873 C31.0267069,33.3404956 31.421327,34.8414849 32.7160936,36.3503604 C33.9205876,37.7540877 36.1593474,39.4285714 39.9740083,39.4285714 C43.7886693,39.4285714 46.0248498,37.7540877 47.231923,36.3503604 C48.5266896,34.8414849 48.9238889,33.3404956 48.9625772,33.1748873 L48.959998,33.1748873 C49.0115823,32.9672198 49.0141615,32.7490375 48.9625772,32.5387412 L48.9677356,32.5413699 Z M9.0285709,36.8024973 C5.89740229,36.8024973 4.21833246,35.3777403 3.35945343,34.1737944 L14.7002676,34.1737944 C13.8413886,35.3777403 12.1623187,36.8024973 9.03115012,36.8024973 L9.0285709,36.8024973 Z M15.1155214,31.5450915 L2.9441996,31.5450915 L9.03115012,6.73539391 L15.1181006,31.5450915 L15.1155214,31.5450915 Z M39.9791667,6.73539391 L46.0661173,31.5450915 L33.8947954,31.5450915 L39.981746,6.73539391 L39.9791667,6.73539391 Z M39.9791667,36.8024973 C36.8479981,36.8024973 35.1689283,35.3777403 34.3100493,34.1737944 L45.6508634,34.1737944 C44.7919844,35.3777403 43.1129146,36.8024973 39.981746,36.8024973 L39.9791667,36.8024973 Z" id="Shape"></path>
            <path d="M39.2467905,45.3781513 L25.053687,45.3781513 L27.5465782,12.7046723 C27.5595756,12.5316303 27.5387798,12.3559664 27.484191,12.1907899 L24.8847215,4.3252437 C24.7079576,3.79038655 24.2114589,3.42857143 23.6525729,3.42857143 C23.093687,3.42857143 22.5971883,3.79038655 22.4204244,4.3252437 L19.8209549,12.1907899 C19.766366,12.3559664 19.7455703,12.5316303 19.7585676,12.7046723 L22.2514589,45.3781513 L8.05835544,45.3781513 C7.34090186,45.3781513 6.75862069,45.9654454 6.75862069,46.6890756 C6.75862069,47.4127059 7.34090186,48 8.05835544,48 L39.2519894,48 C39.969443,48 40.5517241,47.4127059 40.5517241,46.6890756 C40.5517241,45.9654454 39.969443,45.3781513 39.2519894,45.3781513 L39.2467905,45.3781513 Z M23.6499735,8.88463866 L24.9341114,12.7675966 L23.6499735,29.5946218 L22.3658355,12.7675966 L23.6499735,8.88463866 Z" id="Shape"></path>
        </g>
    </g>
</svg>