<?xml version="1.0" encoding="UTF-8"?>
<svg width="15px" height="15px" viewBox="0 0 15 15" version="1.1" xmlns="http://www.w3.org/2000/svg" xmlns:xlink="http://www.w3.org/1999/xlink">
    <!-- Generator: Sketch 50.2 (55047) - http://www.bohemiancoding.com/sketch -->
    <title>search</title>
    <desc>Created with Sketch.</desc>
    <defs></defs>
    <g id="Search" stroke="none" stroke-width="1" fill="none" fill-rule="evenodd">
        <g id="Search-Results-Pool-V1b---Many-CPOs-3" transform="translate(-1206.000000, -214.000000)">
            <g id="search" transform="translate(1204.000000, 212.000000)">
                <rect id="Rectangle-path" x="0" y="0" width="19" height="19"></rect>
                <path d="M16.6627199,14.6901688 L13.0754309,11.1031705 C13.6152983,10.2143314 13.9279035,9.17016108 13.9279035,8.05407824 C13.9279035,4.81034262 11.1163742,2 7.87333458,2 C4.63029498,2 2,4.63008182 2,7.87381744 C2,11.1175531 4.81152931,13.9269368 8.05360999,13.9269368 C9.13238573,13.9269368 10.1430787,13.6344925 11.0108939,13.1282281 L14.61832,16.7353618 C14.9711995,17.0882127 15.5436698,17.0882127 15.8965493,16.7353618 L16.7921729,15.8407696 C17.1431346,15.4869599 17.0155994,15.0430197 16.6627199,14.6901688 Z M4,7.91326413 C4,5.75224913 5.75132641,4 7.91234141,4 C10.0742791,4 12,5.92572088 12,8.08765859 C12,10.2486736 10.2486736,12 8.08673587,12 C5.92572088,12 4,10.0742791 4,7.91326413 Z" id="Shape" fill="#202C42" fill-rule="nonzero"></path>
            </g>
        </g>
    </g>
</svg>