<?xml version="1.0" encoding="UTF-8"?>
<svg width="100px" height="100px" viewBox="0 0 100 100" version="1.1" xmlns="http://www.w3.org/2000/svg" xmlns:xlink="http://www.w3.org/1999/xlink">
    <!-- Generator: Sketch 50.2 (55047) - http://www.bohemiancoding.com/sketch -->
    <title>calendar</title>
    <desc>Created with Sketch.</desc>
    <defs></defs>
    <g id="calendar" stroke="none" stroke-width="1" fill="none" fill-rule="evenodd">
        <g id="calendar-copy" transform="translate(25.000000, 27.000000)" fill="#FFFFFF">
            <g id="Group">
                <path d="M47.175,2.55555556 L40.8,2.55555556 L40.8,1.27777778 C40.8,0.572444444 40.2288,0 39.525,0 C38.8212,0 38.25,0.572444444 38.25,1.27777778 L38.25,2.55555556 L12.75,2.55555556 L12.75,1.27777778 C12.75,0.572444444 12.1788,0 11.475,0 C10.7712,0 10.2,0.572444444 10.2,1.27777778 L10.2,2.55555556 L3.825,2.55555556 C1.71615,2.55555556 0,4.27544444 0,6.38888889 L0,42.1666667 C0,44.2801111 1.71615,46 3.825,46 L47.175,46 C49.28385,46 51,44.2801111 51,42.1666667 L51,6.38888889 C51,4.27544444 49.28385,2.55555556 47.175,2.55555556 Z M3.825,5.11111111 L10.2,5.11111111 L10.2,8.94444444 C10.2,9.64977778 10.7712,10.2222222 11.475,10.2222222 C12.1788,10.2222222 12.75,9.64977778 12.75,8.94444444 L12.75,5.11111111 L38.25,5.11111111 L38.25,8.94444444 C38.25,9.64977778 38.8212,10.2222222 39.525,10.2222222 C40.2288,10.2222222 40.8,9.64977778 40.8,8.94444444 L40.8,5.11111111 L47.175,5.11111111 C47.8788,5.11111111 48.45,5.68355556 48.45,6.38888889 L48.45,12.7777778 L2.55,12.7777778 L2.55,6.38888889 C2.55,5.68355556 3.1212,5.11111111 3.825,5.11111111 Z M47.175,43.4444444 L3.825,43.4444444 C3.1212,43.4444444 2.55,42.872 2.55,42.1666667 L2.55,15.3333333 L48.45,15.3333333 L48.45,42.1666667 C48.45,42.872 47.8788,43.4444444 47.175,43.4444444 Z" id="Shape"></path>
                <path d="M19.125,23 L16.575,23 C15.8712,23 15.3,22.4275556 15.3,21.7222222 C15.3,21.0168889 15.8712,20.4444444 16.575,20.4444444 L19.125,20.4444444 C19.8288,20.4444444 20.4,21.0168889 20.4,21.7222222 C20.4,22.4275556 19.8288,23 19.125,23 Z M26.775,23 L24.225,23 C23.5212,23 22.95,22.4275556 22.95,21.7222222 C22.95,21.0168889 23.5212,20.4444444 24.225,20.4444444 L26.775,20.4444444 C27.4788,20.4444444 28.05,21.0168889 28.05,21.7222222 C28.05,22.4275556 27.4788,23 26.775,23 Z M34.425,23 L31.875,23 C31.1712,23 30.6,22.4275556 30.6,21.7222222 C30.6,21.0168889 31.1712,20.4444444 31.875,20.4444444 L34.425,20.4444444 C35.1288,20.4444444 35.7,21.0168889 35.7,21.7222222 C35.7,22.4275556 35.1288,23 34.425,23 Z M42.075,23 L39.525,23 C38.8212,23 38.25,22.4275556 38.25,21.7222222 C38.25,21.0168889 38.8212,20.4444444 39.525,20.4444444 L42.075,20.4444444 C42.7788,20.4444444 43.35,21.0168889 43.35,21.7222222 C43.35,22.4275556 42.7788,23 42.075,23 Z M11.475,28.1111111 L8.925,28.1111111 C8.2212,28.1111111 7.65,27.5386667 7.65,26.8333333 C7.65,26.128 8.2212,25.5555556 8.925,25.5555556 L11.475,25.5555556 C12.1788,25.5555556 12.75,26.128 12.75,26.8333333 C12.75,27.5386667 12.1788,28.1111111 11.475,28.1111111 Z M19.125,28.1111111 L16.575,28.1111111 C15.8712,28.1111111 15.3,27.5386667 15.3,26.8333333 C15.3,26.128 15.8712,25.5555556 16.575,25.5555556 L19.125,25.5555556 C19.8288,25.5555556 20.4,26.128 20.4,26.8333333 C20.4,27.5386667 19.8288,28.1111111 19.125,28.1111111 Z M26.775,28.1111111 L24.225,28.1111111 C23.5212,28.1111111 22.95,27.5386667 22.95,26.8333333 C22.95,26.128 23.5212,25.5555556 24.225,25.5555556 L26.775,25.5555556 C27.4788,25.5555556 28.05,26.128 28.05,26.8333333 C28.05,27.5386667 27.4788,28.1111111 26.775,28.1111111 Z M34.425,28.1111111 L31.875,28.1111111 C31.1712,28.1111111 30.6,27.5386667 30.6,26.8333333 C30.6,26.128 31.1712,25.5555556 31.875,25.5555556 L34.425,25.5555556 C35.1288,25.5555556 35.7,26.128 35.7,26.8333333 C35.7,27.5386667 35.1288,28.1111111 34.425,28.1111111 Z M42.075,28.1111111 L39.525,28.1111111 C38.8212,28.1111111 38.25,27.5386667 38.25,26.8333333 C38.25,26.128 38.8212,25.5555556 39.525,25.5555556 L42.075,25.5555556 C42.7788,25.5555556 43.35,26.128 43.35,26.8333333 C43.35,27.5386667 42.7788,28.1111111 42.075,28.1111111 Z M11.475,33.2222222 L8.925,33.2222222 C8.2212,33.2222222 7.65,32.6497778 7.65,31.9444444 C7.65,31.2391111 8.2212,30.6666667 8.925,30.6666667 L11.475,30.6666667 C12.1788,30.6666667 12.75,31.2391111 12.75,31.9444444 C12.75,32.6497778 12.1788,33.2222222 11.475,33.2222222 Z M19.125,33.2222222 L16.575,33.2222222 C15.8712,33.2222222 15.3,32.6497778 15.3,31.9444444 C15.3,31.2391111 15.8712,30.6666667 16.575,30.6666667 L19.125,30.6666667 C19.8288,30.6666667 20.4,31.2391111 20.4,31.9444444 C20.4,32.6497778 19.8288,33.2222222 19.125,33.2222222 Z M26.775,33.2222222 L24.225,33.2222222 C23.5212,33.2222222 22.95,32.6497778 22.95,31.9444444 C22.95,31.2391111 23.5212,30.6666667 24.225,30.6666667 L26.775,30.6666667 C27.4788,30.6666667 28.05,31.2391111 28.05,31.9444444 C28.05,32.6497778 27.4788,33.2222222 26.775,33.2222222 Z M34.425,33.2222222 L31.875,33.2222222 C31.1712,33.2222222 30.6,32.6497778 30.6,31.9444444 C30.6,31.2391111 31.1712,30.6666667 31.875,30.6666667 L34.425,30.6666667 C35.1288,30.6666667 35.7,31.2391111 35.7,31.9444444 C35.7,32.6497778 35.1288,33.2222222 34.425,33.2222222 Z M42.075,33.2222222 L39.525,33.2222222 C38.8212,33.2222222 38.25,32.6497778 38.25,31.9444444 C38.25,31.2391111 38.8212,30.6666667 39.525,30.6666667 L42.075,30.6666667 C42.7788,30.6666667 43.35,31.2391111 43.35,31.9444444 C43.35,32.6497778 42.7788,33.2222222 42.075,33.2222222 Z M11.475,38.3333333 L8.925,38.3333333 C8.2212,38.3333333 7.65,37.7608889 7.65,37.0555556 C7.65,36.3502222 8.2212,35.7777778 8.925,35.7777778 L11.475,35.7777778 C12.1788,35.7777778 12.75,36.3502222 12.75,37.0555556 C12.75,37.7608889 12.1788,38.3333333 11.475,38.3333333 Z M19.125,38.3333333 L16.575,38.3333333 C15.8712,38.3333333 15.3,37.7608889 15.3,37.0555556 C15.3,36.3502222 15.8712,35.7777778 16.575,35.7777778 L19.125,35.7777778 C19.8288,35.7777778 20.4,36.3502222 20.4,37.0555556 C20.4,37.7608889 19.8288,38.3333333 19.125,38.3333333 Z M26.775,38.3333333 L24.225,38.3333333 C23.5212,38.3333333 22.95,37.7608889 22.95,37.0555556 C22.95,36.3502222 23.5212,35.7777778 24.225,35.7777778 L26.775,35.7777778 C27.4788,35.7777778 28.05,36.3502222 28.05,37.0555556 C28.05,37.7608889 27.4788,38.3333333 26.775,38.3333333 Z M34.425,38.3333333 L31.875,38.3333333 C31.1712,38.3333333 30.6,37.7608889 30.6,37.0555556 C30.6,36.3502222 31.1712,35.7777778 31.875,35.7777778 L34.425,35.7777778 C35.1288,35.7777778 35.7,36.3502222 35.7,37.0555556 C35.7,37.7608889 35.1288,38.3333333 34.425,38.3333333 Z M42.075,38.3333333 L39.525,38.3333333 C38.8212,38.3333333 38.25,37.7608889 38.25,37.0555556 C38.25,36.3502222 38.8212,35.7777778 39.525,35.7777778 L42.075,35.7777778 C42.7788,35.7777778 43.35,36.3502222 43.35,37.0555556 C43.35,37.7608889 42.7788,38.3333333 42.075,38.3333333 Z" id="Shape"></path>
            </g>
        </g>
    </g>
</svg>