<?xml version="1.0" encoding="UTF-8"?>
<svg width="14px" height="15px" viewBox="0 0 14 15" version="1.1" xmlns="http://www.w3.org/2000/svg" xmlns:xlink="http://www.w3.org/1999/xlink">
    <!-- Generator: Sketch 50.2 (55047) - http://www.bohemiancoding.com/sketch -->
    <title>Path 3</title>
    <desc>Created with Sketch.</desc>
    <defs></defs>
    <g id="Search" stroke="none" stroke-width="1" fill="none" fill-rule="evenodd">
        <g id="Search-Results-Pool-V1b---Many-CPOs-3" transform="translate(-1248.000000, -418.000000)" fill="#CFD7DB">
            <path d="M1248.15,418 L1261.85,418 C1261.93284,418 1262,418.067157 1262,418.15 L1262,419.016017 C1262,419.053732 1261.98579,419.090062 1261.96021,419.117772 L1256.72428,424.788763 C1256.6987,424.816473 1256.68449,424.852803 1256.68449,424.890517 L1256.68449,432.849812 C1256.68449,432.932655 1256.61733,432.999812 1256.53449,432.999812 C1256.5061,432.999812 1256.47829,432.991754 1256.4543,432.976574 L1253.23558,430.940257 C1253.19212,430.912762 1253.16578,430.864921 1253.16578,430.813495 L1253.16578,424.889291 C1253.16578,424.852312 1253.15212,424.816637 1253.12742,424.789114 L1248.03835,419.11742 C1248.01366,419.089897 1248,419.054222 1248,419.017244 L1248,418.15 C1248,418.067157 1248.06716,418 1248.15,418 Z" id="Path-3"></path>
        </g>
    </g>
</svg>