<?xml version="1.0" encoding="UTF-8"?>
<svg width="100px" height="100px" viewBox="0 0 100 100" version="1.1" xmlns="http://www.w3.org/2000/svg" xmlns:xlink="http://www.w3.org/1999/xlink">
    <!-- Generator: Sketch 50.2 (55047) - http://www.bohemiancoding.com/sketch -->
    <title>folder</title>
    <desc>Created with Sketch.</desc>
    <defs></defs>
    <g id="folder" stroke="none" stroke-width="1" fill="none" fill-rule="evenodd">
        <g id="0199-folder-film" transform="translate(26.000000, 32.000000)" fill="#FFFFFF" fill-rule="nonzero">
            <path d="M44.4,36 L3.6,36 C1.6152,36 0,34.3849077 0,32.40024 L0,7.20191987 C0,6.35717619 0.2856,5.14765682 0.6624,4.39170722 L1.9896,1.73748417 C2.484,0.746350243 3.6936,0 4.8,0 L21.6,0 C22.7064,0 23.9136,0.746350243 24.4104,1.73748417 L25.7376,4.39170722 C25.8288,4.5764949 26.196,4.80207986 26.4,4.80207986 L44.4,4.80207986 C46.3848,4.80207986 48,6.41717219 48,8.40183988 L48,32.40024 C48,34.3849077 46.3848,36 44.4,36 Z M4.8,2.40223985 C4.5936,2.40223985 4.2288,2.62782481 4.1376,2.81261249 L2.8104,5.46683554 C2.5992,5.88920739 2.4,6.73155123 2.4,7.20431971 L2.4,32.4026398 C2.4,33.0649957 2.9376,33.6025598 3.6,33.6025598 L44.4,33.6025598 C45.0624,33.6025598 45.6,33.0649957 45.6,32.4026398 L45.6,8.40423972 C45.6,7.74188387 45.0624,7.20431971 44.4,7.20431971 L26.4,7.20431971 C25.2936,7.20431971 24.084,6.45796947 23.5896,5.46683554 L22.2624,2.81261249 C22.1712,2.62782481 21.804,2.40223985 21.6,2.40223985 L4.8,2.40223985 Z" id="Shape"></path>
        </g>
    </g>
</svg>