<?xml version="1.0" encoding="UTF-8"?>
<svg width="14px" height="20px" viewBox="0 0 14 20" version="1.1" xmlns="http://www.w3.org/2000/svg" xmlns:xlink="http://www.w3.org/1999/xlink">
    <!-- Generator: Sketch 50.2 (55047) - http://www.bohemiancoding.com/sketch -->
    <title>location</title>
    <desc>Created with Sketch.</desc>
    <defs></defs>
    <g id="Icons" stroke="none" stroke-width="1" fill="none" fill-rule="evenodd" opacity="0.5">
        <g id="location" fill="#FFFFFF" fill-rule="nonzero">
            <path d="M14,6.82119913 C14,2.92538733 10.7787611,-0.118215642 6.81415929,0.00352847642 C3.09734513,0.125272595 0.123893805,3.04713145 0,6.69945501 C0,8.03864032 0.371681416,9.37782563 0.991150442,10.3517786 L6.56637168,19.7260757 C6.81415929,20.0913081 7.30973451,20.0913081 7.43362832,19.7260757 L13.0088496,10.3517786 C13.6283186,9.25608151 14,8.16038444 14,6.82119913 Z M7.43362832,9.49956975 C5.57522124,9.74305799 4.08849558,8.28212856 4.33628319,6.45596678 C4.46017699,5.23852559 5.45132743,4.26457264 6.69026549,4.14282852 C8.54867257,3.89934028 10.0353982,5.36026971 9.78761062,7.18643149 C9.66371681,8.40387268 8.67256637,9.37782563 7.43362832,9.49956975 Z" id="Shape"></path>
        </g>
    </g>
</svg>