<?xml version="1.0" encoding="UTF-8"?>
<svg width="16px" height="16px" viewBox="0 0 16 16" version="1.1" xmlns="http://www.w3.org/2000/svg" xmlns:xlink="http://www.w3.org/1999/xlink">
    <!-- Generator: Sketch 50.2 (55047) - http://www.bohemiancoding.com/sketch -->
    <title>link</title>
    <desc>Created with Sketch.</desc>
    <defs></defs>
    <g id="Icons" stroke="none" stroke-width="1" fill="none" fill-rule="evenodd">
        <g id="link" fill="#FFFFFF" fill-rule="nonzero">
            <path d="M9.45902616,10 C8.61588038,10 7.77273461,9.67354733 7.13076359,9.02064199 C6.95641214,8.84332091 6.95641214,8.55506047 7.13076359,8.37773938 C7.30511505,8.2004183 7.58854794,8.2004183 7.7628994,8.37773938 C8.69813851,9.32890788 10.2190197,9.32890788 11.1542588,8.37773938 L14.4052429,5.0713831 C15.340482,4.1202146 15.340482,2.57342912 14.4052429,1.62226062 C13.4700038,0.671092116 11.9491226,0.671092116 11.0138835,1.62226062 L8.2707539,4.41211239 C8.09640245,4.58943348 7.81296956,4.58943348 7.6386181,4.41211239 C7.46426664,4.23479131 7.46426664,3.94653087 7.6386181,3.76920978 L10.3817477,0.979358007 C11.6656898,-0.326452669 13.7543308,-0.326452669 15.0373787,0.979358007 C16.3204267,2.28516868 16.3213208,4.40938438 15.0373787,5.71428571 L11.7863946,9.02064199 C11.1444236,9.67354733 10.3012778,10 9.45813205,10 L9.45902616,10 Z" id="Shape"></path>
            <path d="M3.29109649,16 C2.44798212,16 1.60486775,15.6735473 0.962920651,15.020642 C-0.32097355,13.7148313 -0.32097355,11.5906156 0.962920651,10.2857143 L4.21378368,6.97935801 C5.49767788,5.67354733 7.58624115,5.67354733 8.86924128,6.97935801 C9.04358624,7.15667909 9.04358624,7.44493953 8.86924128,7.62226062 C8.69489631,7.7995817 8.41147398,7.7995817 8.23712902,7.62226062 C7.30192475,6.67109212 5.78110021,6.67109212 4.84589594,7.62226062 L1.59503291,10.9286169 C0.659828635,11.8797854 0.659828635,13.4265709 1.59503291,14.3777394 C2.53023718,15.3289079 4.05106172,15.3289079 4.98626599,14.3777394 L7.72929343,11.5878876 C7.9036384,11.4105665 8.18706072,11.4105665 8.36140569,11.5878876 C8.53575065,11.7652087 8.53575065,12.0534691 8.36140569,12.2307902 L5.61837824,15.020642 C4.97643114,15.6735473 4.13331678,16 3.29020241,16 L3.29109649,16 Z" id="Shape"></path>
        </g>
    </g>
</svg>