<?xml version="1.0" encoding="UTF-8"?>
<svg width="20px" height="21px" viewBox="0 0 20 21" version="1.1" xmlns="http://www.w3.org/2000/svg" xmlns:xlink="http://www.w3.org/1999/xlink">
    <!-- Generator: Sketch 50.2 (55047) - http://www.bohemiancoding.com/sketch -->
    <title>0741-history2</title>
    <desc>Created with Sketch.</desc>
    <defs></defs>
    <g id="Icons" stroke="none" stroke-width="1" fill="none" fill-rule="evenodd" opacity="0.5">
        <g id="0741-history2" transform="translate(1.000000, 1.000000)" fill="#FFFFFF" fill-rule="nonzero" stroke="#FFFFFF" stroke-width="0.5">
            <path d="M15.2039725,2.78227177 C13.4019608,0.98790121 11.0065923,0 8.45859176,0 C5.50707036,0 2.75874031,1.35361464 0.967222148,3.61628837 L0.967222148,2.37476252 C0.967222148,2.11258874 0.753537341,1.89981002 0.490247131,1.89981002 C0.226956922,1.89981002 0.0132721144,2.11258874 0.0132721144,2.37476252 L0.0132721144,5.19788021 C0.0132721144,5.41540846 0.16113437,5.60443956 0.372911277,5.65858414 C0.46544443,5.68233177 0.558931534,5.67663234 0.643833087,5.64813519 L3.36545253,4.72482752 C3.61443349,4.64028597 3.7479865,4.37051295 3.66308494,4.12258774 C3.57818339,3.87466253 3.30726158,3.74167583 3.05828062,3.82621738 L1.63689507,4.30876912 C3.24716273,2.21137886 5.75795922,0.95180482 8.45954571,0.95180482 C13.1939997,0.95180482 17.045096,4.78657134 17.045096,9.50094991 C17.045096,14.2153285 13.1939997,18.050095 8.45954571,18.050095 C5.2962474,18.050095 2.3981472,16.3260174 0.896629846,13.550395 C0.771662391,13.319568 0.482615531,13.2331267 0.250805673,13.3575642 C0.0189958146,13.4820018 -0.0678136384,13.769823 0.057153816,14.0006499 C1.72561242,17.0840416 4.94614774,19 8.46049966,19 C11.0085002,19 13.4038687,18.0120988 15.2058804,16.2177282 C17.007892,14.4233577 18,12.0381462 18,9.50094991 C18,6.96375362 17.007892,4.57854215 15.2058804,2.78417158 L15.2039725,2.78227177 Z" id="Shape"></path>
            <path d="M8.54532761,12 C8.46896528,12 8.39351202,11.9813343 8.32442228,11.944003 L4.23358286,8.72190019 C4.01449568,8.60279548 3.93540612,8.33258777 4.05722222,8.11748822 C4.17903833,7.90238867 4.45539726,7.82594833 4.67539351,7.94505304 L8.52987333,11.0382739 L13.3016103,7.06954453 C13.5134248,6.93799604 13.7943291,6.99843724 13.9288723,7.20553722 C14.0634155,7.41263721 14.0015983,7.68728911 13.7897838,7.8188376 L8.7898689,11.9297816 C8.71532472,11.9760013 8.6307807,10.9991112 8.54623669,10.9991112 L8.54532761,12 Z" id="Shape"></path>
        </g>
    </g>
</svg>